<?xml version="1.0" encoding="iso-8859-1"?>
<!-- Generator: Adobe Illustrator 16.0.0, SVG Export Plug-In . SVG Version: 6.00 Build 0)  -->
<!DOCTYPE svg PUBLIC "-//W3C//DTD SVG 1.1//EN" "http://www.w3.org/Graphics/SVG/1.1/DTD/svg11.dtd">
<svg version="1.1" id="Capa_1" xmlns="http://www.w3.org/2000/svg" xmlns:xlink="http://www.w3.org/1999/xlink" x="0px" y="0px"
	 width="529.9px" height="529.9px" viewBox="0 0 529.9 529.9" style="enable-background:new 0 0 529.9 529.9;" xml:space="preserve"
	>
<g>
	<g>
		<path d="M114.8,190.4c4.8,18.9,17,33.5,31.7,38.7c17.1,56.3,61.2,114.6,120.601,114.6c59.5,0,103.5-58.3,120.6-114.6
			c14.699-5,26.9-19.8,31.699-38.7c6.201-24.9-2.299-48.2-19.5-56.5c0-1,0.201-1.9,0.201-2.9c0-29.7-14.301-56.4-37.4-76.4
			c0.199-1.4,0.299-2.8,0.299-4.4C362.999,31,317.899,0,262.3,0c-55.6,0-100.7,31-100.7,50.2c0,2,0.2,3.6,0.4,5.1
			c-22.7,19.9-36.7,46.4-36.7,75.6c0,3,0.2,5.9,0.6,8.9C114.4,150.7,109.6,170.1,114.8,190.4z M133.2,168.4
			c1.3-8.9,5.7-15.9,11.9-17.4c0.7-0.1,1.3-0.2,2.1-0.2c0.6,0,1.1,0,1.7,0.1l9.4,0.9l1.4-9.3c3.2-21.4,10.3-40.4,20.2-56.3
			c18.2-2.4,48.2-16.7,82.2-16.7c40.899,0,76.1,20.7,91.899,16.4c10,15.9,17.201,35,20.4,56.5l1.4,9.3l9.4-0.9
			c1.299-0.1,2.799-0.1,3.799,0.1c2.9,0.8,5.301,2.8,7.201,5.4c4.699,6.6,6.4,17.8,3.699,29.1c-3.799,15.2-13.799,24.2-21.699,25.3
			l-6.6,0.9L369.8,218c-14.301,52.4-54.301,105.6-103,105.6c-48.7,0-88.6-53.1-103-105.6l-1.8-6.4l-6.6-0.9
			c-7.9-1.1-17.8-10.1-21.7-25.3C132.6,179.6,132.4,173.7,133.2,168.4z"/>
		<path d="M381.999,301.4C369.3,323.1,354.7,341.3,335.2,351.2c-40.1,20.5-70,37.2-70,37.2l-0.1-0.101V387.9l-0.4,0.199l-0.4-0.199
			v0.399l-0.1,0.101c0,0-29.9-16.7-70-37.2c-19.4-10-34.1-28.2-46.8-49.8C88,325.5,46.8,381,46.8,429.5c0,51,0,100.4,0,100.4h217.7
			h0.9h217.701c0,0,0-49.4,0-100.4C482.8,381,441.399,325.5,381.999,301.4z"/>
	</g>
</g>
<g>
</g>
<g>
</g>
<g>
</g>
<g>
</g>
<g>
</g>
<g>
</g>
<g>
</g>
<g>
</g>
<g>
</g>
<g>
</g>
<g>
</g>
<g>
</g>
<g>
</g>
<g>
</g>
<g>
</g>
</svg>
