<!DOCTYPE svg PUBLIC "-//W3C//DTD SVG 20010904//EN" "http://www.w3.org/TR/2001/REC-SVG-20010904/DTD/svg10.dtd">
<svg version="1.0" xmlns="http://www.w3.org/2000/svg" width="512px" height="512px" viewBox="0 0 5120 5120" preserveAspectRatio="xMidYMid meet">
<g id="layer101" fill="#000000" stroke="none">
 <path d="M2430 4973 c-340 -7 -728 -62 -972 -139 -188 -59 -334 -161 -356 -250 -6 -22 -133 -817 -283 -1769 -149 -952 -273 -1731 -274 -1733 -2 -2 -41 17 -87 42 -93 51 -138 58 -165 26 -27 -31 -134 -232 -140 -262 -4 -21 1 -33 23 -55 l29 -28 -102 -188 c-111 -203 -121 -237 -81 -274 13 -11 97 -59 187 -108 163 -88 205 -101 236 -75 8 7 61 97 117 201 l103 188 36 -5 c20 -4 45 -1 56 4 24 13 153 250 153 281 0 40 -19 59 -106 107 l-86 47 50 51 c27 28 295 311 596 629 568 601 564 595 535 648 -15 29 -57 42 -89 29 -14 -6 -264 -262 -555 -570 -291 -307 -531 -557 -533 -556 -2 2 104 681 235 1510 130 828 240 1502 244 1498 7 -7 1239 -3124 1247 -3154 4 -16 -5 -18 -81 -18 -149 0 -161 -16 -155 -228 3 -127 4 -135 27 -153 13 -10 34 -19 47 -19 l24 0 0 -230 c0 -223 1 -230 22 -250 20 -19 34 -20 235 -20 214 0 214 0 238 25 l25 24 0 226 0 225 23 0 c13 0 33 9 45 20 21 20 22 29 22 179 0 198 3 194 -140 201 l-98 5 626 1587 c420 1064 629 1582 634 1570 8 -18 480 -3004 475 -3007 -1 -1 -216 220 -477 492 -635 659 -632 656 -669 656 -42 0 -71 -28 -71 -70 0 -41 -50 15 680 -742 289 -299 526 -547 527 -550 2 -3 -36 -26 -83 -51 -91 -48 -114 -70 -114 -109 0 -32 128 -269 153 -283 11 -5 36 -8 56 -4 l36 5 103 -188 c56 -104 109 -194 117 -201 31 -26 73 -13 236 75 90 49 174 97 187 108 40 37 30 71 -80 274 l-103 188 29 28 c22 22 27 34 23 55 -6 30 -113 231 -140 262 -26 31 -73 25 -156 -21 -40 -22 -75 -38 -78 -36 -2 3 -127 787 -278 1743 -168 1065 -281 1754 -292 1777 -99 222 -781 376 -1593 360z m525 -164 c250 -18 513 -65 685 -121 155 -50 273 -134 250 -178 -26 -48 -165 -121 -305 -160 -125 -35 -145 -49 -145 -104 0 -34 23 -58 62 -65 l36 -6 -454 -475 c-250 -261 -462 -490 -470 -508 -12 -27 -12 -37 -2 -60 16 -33 58 -50 93 -36 13 5 227 223 476 484 248 261 478 502 511 535 l59 60 -18 -46 c-245 -630 -1160 -2939 -1164 -2939 -4 0 -472 1173 -528 1324 -2 6 3 3 12 -6 24 -23 50 -30 78 -19 28 10 350 350 361 381 19 53 -42 111 -95 91 -32 -13 -356 -357 -363 -387 -5 -20 -81 164 -325 782 -176 444 -318 809 -316 810 2 2 341 -358 754 -799 413 -441 765 -815 782 -831 87 -83 179 19 99 110 -18 21 -347 373 -730 783 -384 409 -696 746 -695 747 1 2 41 -5 88 -16 371 -81 908 -101 1403 -54 84 8 109 28 104 81 -2 25 -11 42 -29 55 -24 18 -31 19 -203 4 -701 -62 -1520 55 -1699 242 -47 49 -19 88 108 150 303 149 940 217 1580 171z m-2355 -3934 c69 -38 127 -70 129 -71 6 -5 -20 -63 -34 -74 -10 -8 -22 -7 -44 4 -43 22 -68 20 -98 -10 -20 -20 -24 -32 -20 -57 4 -26 -10 -60 -80 -190 l-85 -158 -42 24 c-22 13 -65 37 -93 52 -29 16 -53 32 -53 38 0 7 144 279 156 296 2 1 27 -9 56 -23 46 -23 58 -25 85 -16 20 7 36 22 44 42 19 47 -3 75 -103 131 l-87 48 21 44 22 44 50 -28 c28 -16 107 -59 176 -96z m4169 78 l21 -42 -32 -17 c-53 -27 -78 -55 -78 -88 0 -40 35 -76 74 -76 30 -1 35 -8 109 -145 42 -79 77 -148 77 -153 0 -5 -24 -21 -52 -37 -29 -15 -72 -39 -94 -52 l-42 -24 -82 153 c-77 141 -82 153 -64 163 39 22 74 64 74 90 0 32 -41 75 -71 75 -12 0 -56 -18 -96 -41 -56 -30 -78 -38 -88 -29 -19 16 -41 73 -29 77 5 2 86 46 179 97 94 52 171 93 171 92 1 0 11 -20 23 -43z m-1999 -103 l0 -50 -50 0 c-92 0 -131 -73 -70 -130 l30 -28 0 -171 0 -171 -110 0 -110 0 0 175 0 175 49 0 c64 0 95 24 95 74 0 60 -19 70 -139 74 l-105 4 0 49 0 49 205 0 205 0 0 -50z"/>
 </g>

</svg>